<?xml version="1.0" encoding="UTF-8"?> 
<svg xmlns="http://www.w3.org/2000/svg" width="552" height="652" class="dotted-anim" id="shape3"> 
 

<path d="M0 0 C0.33 1.65 0.66 3.3 1 5 C-0.76755526 5.84026396 -2.53917263 6.67198722 -4.3125 7.5 C-5.29863281 7.9640625 -6.28476562 8.428125 -7.30078125 8.90625 C-10 10 -10 10 -13 10 C-12.9278125 10.59425781 -12.855625 11.18851562 -12.78125 11.80078125 C-12.06182721 18.22562641 -11.88944165 24.53847873 -12 31 C-13.65614657 31.38218767 -15.32457024 31.71395102 -17 32 C-18.51421001 30.48578999 -18.21309856 29.07527232 -18.31640625 26.96484375 C-18.35830078 26.15595703 -18.40019531 25.34707031 -18.44335938 24.51367188 C-18.48267578 23.66353516 -18.52199219 22.81339844 -18.5625 21.9375 C-18.60568359 21.08349609 -18.64886719 20.22949219 -18.69335938 19.34960938 C-18.79976702 17.23327963 -18.90041731 15.11666187 -19 13 C-20.65 12.67 -22.3 12.34 -24 12 C-23.75 10.125 -23.75 10.125 -23 8 C-21.25 6.875 -21.25 6.875 -19 6 C-18.19046875 5.67515625 -17.3809375 5.3503125 -16.546875 5.015625 C-15.70640625 4.68046875 -14.8659375 4.3453125 -14 4 C-12.41500483 3.25351841 -10.83160002 2.50364833 -9.25 1.75 C-6.03437964 0.30832082 -3.58143802 -0.46212103 0 0 Z " transform="translate(361,369)"/> <path d="M0 0 C0.58499268 0.22252441 1.16998535 0.44504883 1.77270508 0.67431641 C2.48364258 2.43603516 2.48364258 2.43603516 2.77270508 4.67431641 C-1.2181522 10.33386546 -8.1760458 16.31883052 -14.22729492 19.67431641 C-16.49291992 19.35791016 -16.49291992 19.35791016 -18.22729492 18.67431641 C-17.44100855 12.66138653 -14.22320701 10.24096937 -9.91479492 6.29931641 C-9.23739258 5.64576172 -8.55999023 4.99220703 -7.86206055 4.31884766 C-7.20270508 3.70654297 -6.54334961 3.09423828 -5.86401367 2.46337891 C-5.26290771 1.90344238 -4.66180176 1.34350586 -4.04248047 0.76660156 C-2.22729492 -0.32568359 -2.22729492 -0.32568359 0 0 Z " transform="translate(459.227294921875,303.32568359375)"/> <path d="M0 0 C1.32 0 2.64 0 4 0 C5.48715195 5.68506189 3.86486344 9.39823018 1.875 14.75 C1.57851563 15.62527344 1.28203125 16.50054687 0.9765625 17.40234375 C0.12112182 19.74030664 -0.70570561 21.87274387 -2 24 C-4.7421875 25.078125 -4.7421875 25.078125 -7 25 C-8.00060183 21.23214774 -7.99194496 19.02417827 -6.6015625 15.390625 C-6.28703125 14.55402344 -5.9725 13.71742188 -5.6484375 12.85546875 C-5.31070313 11.99566406 -4.97296875 11.13585937 -4.625 10.25 C-4.295 9.37472656 -3.965 8.49945313 -3.625 7.59765625 C-1.17569314 1.17569314 -1.17569314 1.17569314 0 0 Z " transform="translate(519,202)"/> <path d="M0 0 C0.5662207 0.3719751 1.13244141 0.7439502 1.71582031 1.12719727 C1.33846446 3.55521813 1.0662987 4.8109355 -0.78710938 6.48339844 C-1.42036133 6.87503174 -2.05361328 7.26666504 -2.70605469 7.67016602 C-3.40214844 8.10393555 -4.09824219 8.53770508 -4.81542969 8.98461914 C-5.91371094 9.64300781 -5.91371094 9.64300781 -7.03417969 10.31469727 C-7.75089844 10.76522461 -8.46761719 11.21575195 -9.20605469 11.67993164 C-15.99280636 15.84055973 -15.99280636 15.84055973 -20.28417969 16.12719727 C-21.28417969 15.12719727 -21.28417969 15.12719727 -21.59765625 12.75 C-21.28417969 10.12719727 -21.28417969 10.12719727 -19.60351562 8.51806641 C-18.44770996 7.84698853 -18.44770996 7.84698853 -17.26855469 7.16235352 C-16.429375 6.6731543 -15.59019531 6.18395508 -14.72558594 5.67993164 C-13.83742187 5.1881543 -12.94925781 4.69637695 -12.03417969 4.18969727 C-11.16148437 3.67084961 -10.28878906 3.15200195 -9.38964844 2.61743164 C-2.86333005 -1.09410057 -2.86333005 -1.09410057 0 0 Z " transform="translate(244.2841796875,544.872802734375)"/> <path d="M0 0 C0 1.65 0 3.3 0 5 C-3.05159207 6.5434728 -6.11770818 8.05559271 -9.1875 9.5625 C-10.05181641 10.00013672 -10.91613281 10.43777344 -11.80664062 10.88867188 C-12.64775391 11.29794922 -13.48886719 11.70722656 -14.35546875 12.12890625 C-15.51018677 12.70233765 -15.51018677 12.70233765 -16.68823242 13.28735352 C-19.48301725 14.14889929 -21.21617967 13.77723058 -24 13 C-23.77294922 10.65576172 -23.77294922 10.65576172 -23 8 C-21.09814453 6.59033203 -21.09814453 6.59033203 -18.6328125 5.5078125 C-17.74722656 5.11335937 -16.86164063 4.71890625 -15.94921875 4.3125 C-14.55123047 3.7246875 -14.55123047 3.7246875 -13.125 3.125 C-11.73861328 2.50238281 -11.73861328 2.50238281 -10.32421875 1.8671875 C-3.41870378 -1.13956793 -3.41870378 -1.13956793 0 0 Z " transform="translate(193,574)"/> <path d="M0 0 C0.33 1.32 0.66 2.64 1 4 C-15.18151208 15.37396139 -15.18151208 15.37396139 -20.796875 14.62890625 C-21.52390625 14.42136719 -22.2509375 14.21382812 -23 14 C-23.015625 11.80078125 -23.015625 11.80078125 -22 9 C-19.45757966 6.99827187 -16.64011763 5.62300471 -13.75 4.1875 C-12.98558594 3.78080078 -12.22117188 3.37410156 -11.43359375 2.95507812 C-7.53669277 0.95278444 -4.50016897 -0.60302264 0 0 Z " transform="translate(219,560)"/> <path d="M0 0 C0.22143555 2.30322266 0.22143555 2.30322266 0 5 C-1.48120117 6.68505859 -1.48120117 6.68505859 -3.54296875 8.1484375 C-4.28740234 8.67824219 -5.03183594 9.20804688 -5.79882812 9.75390625 C-6.58708984 10.28886719 -7.37535156 10.82382812 -8.1875 11.375 C-9.34088867 12.21224609 -9.34088867 12.21224609 -10.51757812 13.06640625 C-16.30320525 17.08903112 -16.30320525 17.08903112 -19.76293945 16.64697266 C-20.50116943 16.43347168 -21.23939941 16.2199707 -22 16 C-21.66179246 13.11775075 -21.42615619 11.44585873 -19.3894043 9.31494141 C-18.70789307 8.83202637 -18.02638184 8.34911133 -17.32421875 7.8515625 C-16.57849609 7.32175781 -15.83277344 6.79195312 -15.06445312 6.24609375 C-14.28005859 5.71113281 -13.49566406 5.17617188 -12.6875 4.625 C-11.91470703 4.06683594 -11.14191406 3.50867188 -10.34570312 2.93359375 C-4.00309482 -1.48387205 -4.00309482 -1.48387205 0 0 Z " transform="translate(270,528)"/> <path d="M0 0 C1.32 0.33 2.64 0.66 4 1 C4.22605596 3.83441743 4.30602211 5.50245848 2.79418945 7.96044922 C0.98247467 9.94820426 -0.8334688 11.92650767 -2.6875 13.875 C-3.31333984 14.57625 -3.93917969 15.2775 -4.58398438 16 C-5.19951172 16.65742188 -5.81503906 17.31484375 -6.44921875 17.9921875 C-7.00955811 18.59401855 -7.56989746 19.19584961 -8.1472168 19.81591797 C-10 21 -10 21 -12.72192383 20.68798828 C-13.84957153 20.34743408 -13.84957153 20.34743408 -15 20 C-14.47624675 16.07924829 -13.57957135 14.06892527 -10.83984375 11.23046875 C-10.21142578 10.56982422 -9.58300781 9.90917969 -8.93554688 9.22851562 C-8.27619141 8.55498047 -7.61683594 7.88144531 -6.9375 7.1875 C-6.27427734 6.49462891 -5.61105469 5.80175781 -4.92773438 5.08789062 C-3.29370077 3.3833232 -1.65113735 1.6879775 0 0 Z " transform="translate(310,486)"/> <path d="M0 0 C0.33 1.32 0.66 2.64 1 4 C-4.16458475 7.4430565 -9.26056862 7.13280841 -15.3125 7.0625 C-16.05306641 7.05798828 -16.79363281 7.05347656 -17.55664062 7.04882812 C-19.37112899 7.03712175 -21.18557534 7.01918898 -23 7 C-23.625 5.125 -23.625 5.125 -24 3 C-18.12167725 -2.87832275 -7.49129004 -0.9525008 0 0 Z " transform="translate(304,388)"/> <path d="M0 0 C0.046875 2.1953125 0.046875 2.1953125 -1 5 C-3.7095031 7.04074135 -6.69259054 8.42725471 -9.75 9.875 C-10.56210937 10.29007812 -11.37421875 10.70515625 -12.2109375 11.1328125 C-18.206839 14.06240607 -18.206839 14.06240607 -22.078125 13.7578125 C-22.71234375 13.50773437 -23.3465625 13.25765625 -24 13 C-24.046875 10.8046875 -24.046875 10.8046875 -23 8 C-20.2904969 5.95925865 -17.30740946 4.57274529 -14.25 3.125 C-13.43789063 2.70992188 -12.62578125 2.29484375 -11.7890625 1.8671875 C-4.40922437 -1.7385966 -4.40922437 -1.7385966 0 0 Z " transform="translate(389,357)"/> <path d="M0 0 C0.8971875 0.309375 0.8971875 0.309375 1.8125 0.625 C1.50877798 3.92009734 1.10034256 5.33390498 -1.26171875 7.72265625 C-2.12410156 8.37105469 -2.98648437 9.01945312 -3.875 9.6875 C-5.23238281 10.7084375 -5.23238281 10.7084375 -6.6171875 11.75 C-7.46539062 12.36875 -8.31359375 12.9875 -9.1875 13.625 C-9.78820312 14.099375 -10.38890625 14.57375 -11.0078125 15.0625 C-13.57721589 16.99964182 -14.80209643 17.65851335 -18.0625 17.375 C-18.76375 17.1275 -19.465 16.88 -20.1875 16.625 C-20.10157717 13.96616577 -19.7805619 12.20537494 -17.84082031 10.30712891 C-16.03743711 8.94763162 -14.19764609 7.68109437 -12.3125 6.4375 C-11.67441406 5.99986328 -11.03632813 5.56222656 -10.37890625 5.11132812 C-8.6581806 3.93484033 -6.9234543 2.77889903 -5.1875 1.625 C-2.1875 -0.375 -2.1875 -0.375 0 0 Z " transform="translate(437.1875,323.375)"/> <path d="M0 0 C1.32 0.66 2.64 1.32 4 2 C3.42588543 5.9277838 2.24634312 8.59717614 0.125 11.9375 C-1.67053607 14.80180755 -3.21737376 17.47655017 -4.625 20.5625 C-6 23 -6 23 -8.0625 23.9375 C-10 24 -10 24 -12 23 C-11.45144423 18.15808111 -10.0193152 14.63917598 -7.6875 10.375 C-7.09324219 9.26898438 -6.49898437 8.16296875 -5.88671875 7.0234375 C-4.1492198 4.23912241 -2.42203558 2.19212933 0 0 Z " transform="translate(180,279)"/> <path d="M0 0 C1.65 0.33 3.3 0.66 5 1 C4.49780372 6.68663434 2.94163643 10.86776459 0.25 15.875 C-0.08515625 16.55046875 -0.4203125 17.2259375 -0.765625 17.921875 C-3.33762028 22.77359337 -3.33762028 22.77359337 -6.765625 23.9453125 C-7.50296875 23.96335938 -8.2403125 23.98140625 -9 24 C-10.33613754 20.33092389 -10.0121324 19.02782963 -8.41796875 15.37109375 C-7.68887182 14.0518385 -6.9448431 12.74074524 -6.1875 11.4375 C-5.45166596 10.12378582 -4.71598442 8.8099862 -3.98046875 7.49609375 C-3.63419434 6.88878418 -3.28791992 6.28147461 -2.93115234 5.65576172 C-1.88818111 3.80116526 -0.92213714 1.91745976 0 0 Z " transform="translate(508,230)"/> <path d="M0 0 C0.33 1.32 0.66 2.64 1 4 C-2.96145378 6.59018132 -7.03511415 8.25581048 -11.5 9.75 C-12.15097656 9.98332031 -12.80195312 10.21664062 -13.47265625 10.45703125 C-17.35707334 11.76753156 -20.05915385 12.24288225 -24 11 C-24.01171875 8.70703125 -24.01171875 8.70703125 -23 6 C-20.43932492 4.41926796 -17.67111739 3.58809517 -14.8125 2.6875 C-14.05646484 2.42388672 -13.30042969 2.16027344 -12.52148438 1.88867188 C-8.22368815 0.45358814 -4.58557865 -0.31448147 0 0 Z " transform="translate(109,608)"/> <path d="M0 0 C0.046875 2.26171875 0.046875 2.26171875 -1 5 C-3.73752806 6.73192165 -6.70537869 7.73834622 -9.75 8.8125 C-10.56210938 9.12380859 -11.37421875 9.43511719 -12.2109375 9.75585938 C-16.22458826 11.24300196 -19.65209295 12.45069768 -24 12 C-24.33 10.68 -24.66 9.36 -25 8 C-21.39901047 4.8947311 -17.45347024 3.39911553 -13.0625 1.75 C-12.35931641 1.46898437 -11.65613281 1.18796875 -10.93164062 0.8984375 C-6.91952356 -0.62067712 -4.23837426 -1.42661521 0 0 Z " transform="translate(138,598)"/> <path d="M0 0 C-0.22924805 2.35571289 -0.22924805 2.35571289 -1 5 C-2.88598633 6.33374023 -2.88598633 6.33374023 -5.33203125 7.30859375 C-6.21310547 7.66244141 -7.09417969 8.01628906 -8.00195312 8.38085938 C-8.92943359 8.72955078 -9.85691406 9.07824219 -10.8125 9.4375 C-11.72837891 9.81326172 -12.64425781 10.18902344 -13.58789062 10.57617188 C-20.41050628 13.23465649 -20.41050628 13.23465649 -23.2956543 12.08618164 C-23.85808838 11.7277417 -24.42052246 11.36930176 -25 11 C-24.75488281 9.13598633 -24.75488281 9.13598633 -24 7 C-22.22167969 5.7956543 -22.22167969 5.7956543 -19.921875 4.82421875 C-19.09042969 4.47166016 -18.25898438 4.11910156 -17.40234375 3.75585938 C-16.52707031 3.40330078 -15.65179688 3.05074219 -14.75 2.6875 C-13.89019531 2.31560547 -13.03039062 1.94371094 -12.14453125 1.56054688 C-7.55161936 -0.33960234 -4.93415845 -1.32612316 0 0 Z " transform="translate(166,587)"/> <path d="M0 0 C0.33 1.32 0.66 2.64 1 4 C-3.25768559 7.35381938 -7.62175295 10.51460047 -12.1875 13.4375 C-12.98542969 13.95183594 -13.78335937 14.46617187 -14.60546875 14.99609375 C-17.51104904 16.2142571 -19.02921529 15.89176308 -22 15 C-21.984375 12.83203125 -21.984375 12.83203125 -21 10 C-18.63447774 7.87364465 -15.97775421 6.30830466 -13.25 4.6875 C-12.53328125 4.23310547 -11.8165625 3.77871094 -11.078125 3.31054688 C-4.56024912 -0.67326513 -4.56024912 -0.67326513 0 0 Z " transform="translate(414,341)"/> <path d="M0 0 C1.67542976 0.28604898 3.34385343 0.61781233 5 1 C4.5576941 5.874211 2.4532018 8.09441726 -0.875 11.5625 C-3.77283473 14.60818345 -6.56268332 17.57000136 -9 21 C-10.65 20.67 -12.3 20.34 -14 20 C-13.66915033 14.58233665 -10.46064228 11.59338612 -7 7.75 C-6.44054687 7.11320312 -5.88109375 6.47640625 -5.3046875 5.8203125 C-1.49274554 1.49274554 -1.49274554 1.49274554 0 0 Z " transform="translate(477,281)"/> <path d="M0 0 C0.5775 0.226875 1.155 0.45375 1.75 0.6875 C2.18359375 2.796875 2.18359375 2.796875 1.75 5.6875 C-0.29697408 8.08989971 -2.72046107 9.98113094 -5.1875 11.9375 C-6.1765332 12.74960937 -6.1765332 12.74960937 -7.18554688 13.578125 C-8.40190283 14.57616065 -9.6233615 15.56803076 -10.85131836 16.55175781 C-12.2206402 17.62374241 -12.2206402 17.62374241 -13.25 18.6875 C-14.91617115 18.72813832 -16.58388095 18.730221 -18.25 18.6875 C-18.58 17.3675 -18.91 16.0475 -19.25 14.6875 C-17.16880554 12.74765834 -15.08515453 10.81057706 -13 8.875 C-12.12021484 8.05418945 -12.12021484 8.05418945 -11.22265625 7.21679688 C-2.98936219 -0.41518919 -2.98936219 -0.41518919 0 0 Z " transform="translate(291.25,508.3125)"/> <path d="M0 0 C1.65 0.33 3.3 0.66 5 1 C4.55732135 6.6928475 2.27264521 10.24261851 -0.875 14.8125 C-1.32230469 15.49248047 -1.76960938 16.17246094 -2.23046875 16.87304688 C-5.60776625 21.86925542 -5.60776625 21.86925542 -9 23 C-9.99 22.34 -10.98 21.68 -12 21 C-11.10514414 16.72949397 -8.94525288 13.52840927 -6.5625 9.9375 C-6.15451172 9.31294922 -5.74652344 8.68839844 -5.32617188 8.04492188 C-3.56540326 5.35350231 -1.78402869 2.67604303 0 0 Z " transform="translate(326,462)"/> <path d="M0 0 C3.37017533 0.30260377 4.77849436 0.79176953 7.28125 3.14453125 C8.0134375 4.02496094 8.745625 4.90539062 9.5 5.8125 C12.44109464 9.31799484 15.34347774 12.23829569 19 15 C18.67 16.65 18.34 18.3 18 20 C10.81090447 19.2155012 6.00710086 13.42600049 1.4296875 8.2109375 C-0.26984357 5.89339513 -1.05536393 4.52595731 -0.75 1.625 C-0.5025 1.08875 -0.255 0.5525 0 0 Z " transform="translate(170,364)"/> <path d="M0 0 C1.65 0 3.3 0 5 0 C6.01132916 2.87145245 7.00924402 5.74645223 8 8.625 C8.28617187 9.43324219 8.57234375 10.24148438 8.8671875 11.07421875 C10.38906525 15.53114644 11.37123303 19.22037472 11 24 C9.68 24.33 8.36 24.66 7 25 C4.22909372 20.83549086 2.71613923 16.66991981 1.25 11.9375 C1.01667969 11.23044922 0.78335937 10.52339844 0.54296875 9.79492188 C-0.61767438 6.09406877 -1.16144887 3.69510162 0 0 Z " transform="translate(334,347)"/> <path d="M0 0 C1.80859375 0.109375 1.80859375 0.109375 4 1 C6.03515625 3.328125 6.03515625 3.328125 8.0625 6.25 C8.73410156 7.20390625 9.40570313 8.1578125 10.09765625 9.140625 C15.4169222 17.1359077 15.4169222 17.1359077 15 22 C13.68 22.33 12.36 22.66 11 23 C9.00736722 20.28189412 7.02167363 17.55922949 5.046875 14.828125 C3.90230148 13.24669136 2.75149107 11.66956504 1.578125 10.109375 C-0.68476883 6.99379653 -1.55139282 4.85974974 -1 1 C-0.67 0.67 -0.34 0.34 0 0 Z " transform="translate(306,294)"/> <path d="M0 0 C1.67542976 0.28604898 3.34385343 0.61781233 5 1 C4.45120275 5.51510468 2.68917239 8.34773743 0.125 12.0625 C-0.57367188 13.08472656 -1.27234375 14.10695313 -1.9921875 15.16015625 C-3.62582211 17.47076396 -5.28424862 19.75009961 -7 22 C-8.65 21.67 -10.3 21.34 -12 21 C-11.52040133 15.8443143 -8.8669099 12.38312844 -6 8.25 C-5.5359375 7.56550781 -5.071875 6.88101562 -4.59375 6.17578125 C-1.21350932 1.21350932 -1.21350932 1.21350932 0 0 Z " transform="translate(494,257)"/> <path d="M0 0 C0.33 1.65 0.66 3.3 1 5 C-4.03145268 7.29481721 -8.94599812 8.93697266 -14.3125 10.25 C-15.38467773 10.5284375 -15.38467773 10.5284375 -16.47851562 10.8125 C-21.75112099 12.12443951 -21.75112099 12.12443951 -24 11 C-23.67 9.35 -23.34 7.7 -23 6 C-20.1071271 4.99064871 -17.21121485 3.99231256 -14.3125 3 C-13.08756836 2.57074219 -13.08756836 2.57074219 -11.83789062 2.1328125 C-4.32355667 -0.42266949 -4.32355667 -0.42266949 0 0 Z " transform="translate(80,617)"/> <path d="M0 0 C2.51875507 0.27904107 3.66269291 0.58402652 5.28027344 2.57885742 C5.63637695 3.24763916 5.99248047 3.9164209 6.359375 4.60546875 C6.75253906 5.34216797 7.14570313 6.07886719 7.55078125 6.83789062 C7.94652344 7.61326172 8.34226562 8.38863281 8.75 9.1875 C9.36681641 10.32155273 9.36681641 10.32155273 9.99609375 11.47851562 C12.26025334 15.81502062 13.54411179 18.98296924 13 24 C11.35 24 9.7 24 8 24 C6.48344896 21.11254776 4.98981041 18.21382748 3.5 15.3125 C3.07074219 14.49587891 2.64148438 13.67925781 2.19921875 12.83789062 C1.79316406 12.04189453 1.38710938 11.24589844 0.96875 10.42578125 C0.59169922 9.69786377 0.21464844 8.96994629 -0.17382812 8.2199707 C-1.12577486 5.6620358 -1.21988539 3.70893018 -1 1 C-0.67 0.67 -0.34 0.34 0 0 Z " transform="translate(322,319)"/> <path d="M0 0 C0.36328125 2.1484375 0.36328125 2.1484375 0 5 C-1.89650911 7.09939148 -3.66717974 8.82362382 -5.8125 10.625 C-6.90264007 11.57518098 -7.99249238 12.52569221 -9.08203125 13.4765625 C-10.04496094 14.30929687 -11.00789062 15.14203125 -12 16 C-12.85078125 16.91845703 -12.85078125 16.91845703 -13.71875 17.85546875 C-14.1415625 18.23316406 -14.564375 18.61085938 -15 19 C-17.6875 18.6875 -17.6875 18.6875 -20 18 C-19.559809 13.18379259 -17.62084321 11.16256436 -14.1875 7.875 C-13.31480469 7.02679688 -12.44210938 6.17859375 -11.54296875 5.3046875 C-5.21071013 -0.43422584 -5.21071013 -0.43422584 0 0 Z " transform="translate(204,258)"/> <path d="M0 0 C7.43910623 0 11.66368312 4.18211926 17 9 C17.76441406 9.68964844 18.52882813 10.37929688 19.31640625 11.08984375 C19.87199219 11.72019531 20.42757813 12.35054688 21 13 C20.75 15.75 20.75 15.75 20 18 C15.37861608 17.52135667 13.29911976 15.81071252 10 12.625 C7.46387574 10.19190578 5.25175011 8.1461207 2.20703125 6.37890625 C1.47871094 5.92386719 0.75039063 5.46882813 0 5 C-0.3125 2.3125 -0.3125 2.3125 0 0 Z " transform="translate(264,251)"/> <path d="M0 0 C0 1.65 0 3.3 0 5 C-3.41194948 6.03707893 -6.83015645 7.05178608 -10.25 8.0625 C-11.21808594 8.35705078 -12.18617187 8.65160156 -13.18359375 8.95507812 C-14.58544922 9.3659668 -14.58544922 9.3659668 -16.015625 9.78515625 C-16.87446289 10.04176025 -17.73330078 10.29836426 -18.61816406 10.56274414 C-21.13048469 11.02395429 -22.6059952 10.81657856 -25 10 C-24.67 8.35 -24.34 6.7 -24 5 C-20.78294447 4.00343844 -17.56473572 3.01114482 -14.34375 2.02734375 C-12.46447015 1.44994819 -10.58733234 0.86503506 -8.71875 0.25390625 C-5.47419191 -0.7778063 -3.22784001 -1.291136 0 0 Z " transform="translate(52,626)"/> <path d="M0 0 C1.65 0 3.3 0 5 0 C4.79431198 5.9649526 3.49882144 10.98170559 1.25 16.5 C0.76015625 17.7065625 0.2703125 18.913125 -0.234375 20.15625 C-2 23 -2 23 -4.703125 23.90625 C-5.46109375 23.9371875 -6.2190625 23.968125 -7 24 C-8.59668279 19.20995163 -7.1098737 15.85071458 -5.1875 11.4375 C-4.91357422 10.77814453 -4.63964844 10.11878906 -4.35742188 9.43945312 C-3.01460899 6.23537921 -1.60690909 3.08056231 0 0 Z " transform="translate(338,435)"/> <path d="M0 0 C3.69230769 0.69230769 3.69230769 0.69230769 5 2 C4.84716387 9.79464247 3.76294804 17.41761185 2 25 C0.34385343 25.38218767 -1.32457024 25.71395102 -3 26 C-3.33 25.67 -3.66 25.34 -4 25 C-3.46575342 3.46575342 -3.46575342 3.46575342 0 0 Z " transform="translate(344,405)"/> <path d="M0 0 C4.92737426 0.55168454 9.54011755 1.95811385 14.25 3.4375 C15.32894531 3.76331055 15.32894531 3.76331055 16.4296875 4.09570312 C21.75663265 5.75663265 21.75663265 5.75663265 24 8 C23.625 10.125 23.625 10.125 23 12 C14.99427428 11.80121223 6.93528688 10.1423433 0 6 C-0.93359375 3.390625 -0.93359375 3.390625 -1 1 C-0.67 0.67 -0.34 0.34 0 0 Z " transform="translate(193,383)"/> <path d="M0 0 C2.21484375 -0.29296875 2.21484375 -0.29296875 5 0 C7.31640625 2.01171875 7.31640625 2.01171875 9.5625 4.6875 C10.67818359 5.99267578 10.67818359 5.99267578 11.81640625 7.32421875 C12.53699219 8.20722656 13.25757813 9.09023438 14 10 C14.73347656 10.88945312 15.46695312 11.77890625 16.22265625 12.6953125 C17.93267984 14.91270572 18.80805161 16.2167484 19 19 C18.34 19.66 17.68 20.32 17 21 C12.05257547 20.51341915 9.82822127 16.88116414 6.8125 13.3125 C6.26658203 12.69955078 5.72066406 12.08660156 5.15820312 11.45507812 C1.96438176 7.72301673 0.27330713 5.0835126 0 0 Z " transform="translate(286,271)"/> <path d="M0 0 C0 1.65 0 3.3 0 5 C-1.12019531 5.40992188 -2.24039063 5.81984375 -3.39453125 6.2421875 C-4.867263 6.78625401 -6.33991511 7.33053611 -7.8125 7.875 C-8.55048828 8.14441406 -9.28847656 8.41382813 -10.04882812 8.69140625 C-10.76103516 8.95566406 -11.47324219 9.21992188 -12.20703125 9.4921875 C-12.8616333 9.73308105 -13.51623535 9.97397461 -14.19067383 10.22216797 C-16.27895937 11.05526168 -16.27895937 11.05526168 -19 13 C-21.6875 12.625 -21.6875 12.625 -24 12 C-23.79296875 9.66796875 -23.79296875 9.66796875 -23 7 C-20.92578125 5.48828125 -20.92578125 5.48828125 -18.3125 4.3125 C-17.405 3.90257812 -16.4975 3.49265625 -15.5625 3.0703125 C-10.07162571 0.77686806 -6.0087225 -0.2403489 0 0 Z " transform="translate(231,245)"/> <path d="M0 0 C0.66 0.66 1.32 1.32 2 2 C1.625 4.125 1.625 4.125 1 6 C-7.02114786 5.15566865 -15.00861581 4.08446979 -23 3 C-23.33 1.35 -23.66 -0.3 -24 -2 C-17.14575879 -5.42712061 -6.87916773 -1.96805586 0 0 Z " transform="translate(259,246)"/> <path d="M0 0 C0.625 1.875 0.625 1.875 1 4 C-1.90153725 6.90153725 -5.46438411 7.51910872 -9.3125 8.625 C-10.07240234 8.85445313 -10.83230469 9.08390625 -11.61523438 9.3203125 C-15.502774 10.45516334 -18.90523953 11.31058063 -23 11 C-23.33 9.35 -23.66 7.7 -24 6 C-7.125 -0.5625 -7.125 -0.5625 0 0 Z " transform="translate(333,380)"/> <path d="M0 0 C2.0625 0.4375 2.0625 0.4375 4 1 C3.28621973 9.13709505 1.67226118 17.01731928 0 25 C-1.875 25.625 -1.875 25.625 -4 26 C-4.66 25.34 -5.32 24.68 -6 24 C-5.1954023 5.1954023 -5.1954023 5.1954023 0 0 Z " transform="translate(166,306)"/> <path d="M0 0 C1.67542976 0.28604898 3.34385343 0.61781233 5 1 C3.20754717 21.79245283 3.20754717 21.79245283 0 25 C-1.66617115 25.04063832 -3.33388095 25.042721 -5 25 C-3.76595745 3.76595745 -3.76595745 3.76595745 0 0 Z " transform="translate(533,144)"/> <path d="M0 0 C2.125 0.375 2.125 0.375 4 1 C4.32046076 9.01151891 4.52289383 19.21565925 0 26 C-1.9375 25.6875 -1.9375 25.6875 -4 25 C-5.49518508 20.51444477 -4.40109636 16.54520136 -3.6875 11.9375 C-3.55666016 11.01388672 -3.42582031 10.09027344 -3.29101562 9.13867188 C-3.15759766 8.25630859 -3.02417969 7.37394531 -2.88671875 6.46484375 C-2.76514404 5.656521 -2.64356934 4.84819824 -2.51831055 4.01538086 C-2 2 -2 2 0 0 Z " transform="translate(538,114)"/> <path d="M0 0 C2.125 0.9375 2.125 0.9375 4 2 C3.69408272 5.62558736 3.37915282 9.25033575 3.0625 12.875 C2.97548828 13.90753906 2.88847656 14.94007812 2.79882812 16.00390625 C2.71181641 16.99003906 2.62480469 17.97617188 2.53515625 18.9921875 C2.456604 19.90339355 2.37805176 20.81459961 2.29711914 21.75341797 C2 24 2 24 1 26 C-0.65 26 -2.3 26 -4 26 C-4.27275114 17.5901732 -4.0604443 9.20362084 -2 1 C-1.34 0.67 -0.68 0.34 0 0 Z " transform="translate(542,84)"/> <path d="M0 0 C2.125 0.375 2.125 0.375 4 1 C2.66908213 21.33091787 2.66908213 21.33091787 -1 25 C-2.66617115 25.04063832 -4.33388095 25.042721 -6 25 C-6.21349682 19.57006418 -5.4955708 14.93163438 -4.125 9.6875 C-3.95097656 8.97271484 -3.77695312 8.25792969 -3.59765625 7.52148438 C-2.25829646 2.25829646 -2.25829646 2.25829646 0 0 Z " transform="translate(527,173)"/> <path d="M0 0 C1.2065625 0.0309375 1.2065625 0.0309375 2.4375 0.0625 C2.52287096 6.64554939 2.60195661 13.23902544 2.1875 19.8125 C2.14109375 20.59109375 2.0946875 21.3696875 2.046875 22.171875 C1.4375 24.0625 1.4375 24.0625 -0.609375 25.328125 C-1.57617188 25.69164062 -1.57617188 25.69164062 -2.5625 26.0625 C-4.5625 24.0625 -4.5625 24.0625 -4.79296875 22.13671875 C-4.39636581 0.10722843 -4.39636581 0.10722843 0 0 Z " transform="translate(547.5625,24.9375)"/> <path d="M0 0 C1.67542976 0.28604898 3.34385343 0.61781233 5 1 C5.6732656 3.89444095 6.33880404 6.79030013 7 9.6875 C7.19078125 10.50412109 7.3815625 11.32074219 7.578125 12.16210938 C8.48733916 16.17239326 9.27000098 19.85717252 9 24 C7.68 24.33 6.36 24.66 5 25 C2.51506541 21.26215721 1.28595076 17.93530263 0.3125 13.5625 C0.06113281 12.47066406 -0.19023437 11.37882812 -0.44921875 10.25390625 C-0.98586664 7.08349707 -1.17480476 4.20790356 -1 1 C-0.67 0.67 -0.34 0.34 0 0 Z " transform="translate(161,336)"/> <path d="M0 0 C1.2065625 0.0309375 1.2065625 0.0309375 2.4375 0.0625 C2.56545379 8.08093723 2.53212032 16.10285349 1.4375 24.0625 C0.4375 25.0625 0.4375 25.0625 -2.125 25.125 C-2.929375 25.104375 -3.73375 25.08375 -4.5625 25.0625 C-4.67711625 17.05209729 -4.78987478 9.00255411 -3.5625 1.0625 C-2.5625 0.0625 -2.5625 0.0625 0 0 Z " transform="translate(545.5625,54.9375)"/> <path d="M0 0 C0 1.65 0 3.3 0 5 C-7.07662242 8.53831121 -17.32711703 7.10823816 -25 7 C-25.042721 5.33388095 -25.04063832 3.66617115 -25 2 C-20.68047647 -2.31952353 -5.85636618 -0.09345265 0 0 Z " transform="translate(276,391)"/> <path d="M0 0 C3.62532066 0.13847638 7.25015904 0.28702643 10.875 0.4375 C12.42380859 0.49647461 12.42380859 0.49647461 14.00390625 0.55664062 C14.99003906 0.59853516 15.97617188 0.64042969 16.9921875 0.68359375 C17.90339355 0.72025146 18.81459961 0.75690918 19.75341797 0.79467773 C22 1 22 1 24 2 C24 3.65 24 5.3 24 7 C20.95809137 7.05421223 17.91716001 7.09377548 14.875 7.125 C14.0190625 7.14175781 13.163125 7.15851563 12.28125 7.17578125 C7.43412707 7.21306681 3.55292095 6.89580643 -1 5 C-0.67 3.35 -0.34 1.7 0 0 Z " transform="translate(222,391)"/> <path d="M0 0 C0.33 1.65 0.66 3.3 1 5 C-6.52044724 8.0081789 -13.80119422 10.42045158 -22 10 C-22 8.02 -22 6.04 -22 4 C-19.27238489 3.32636628 -16.543201 2.66090556 -13.8125 2 C-13.04357422 1.80921875 -12.27464844 1.6184375 -11.48242188 1.421875 C-7.57921747 0.48376579 -4.04770205 -0.25957208 0 0 Z " transform="translate(22,633)"/> <path d="M0 0 C1.65 0 3.3 0 5 0 C5 6.27 5 12.54 5 19 C3.02 19.99 3.02 19.99 1 21 C0.34 20.67 -0.32 20.34 -1 20 C-1.02696009 17.2291017 -1.04681952 14.4584655 -1.0625 11.6875 C-1.07087891 10.90181641 -1.07925781 10.11613281 -1.08789062 9.30664062 C-1.09111328 8.54931641 -1.09433594 7.79199219 -1.09765625 7.01171875 C-1.10289307 6.31522217 -1.10812988 5.61872559 -1.11352539 4.90112305 C-1 3 -1 3 0 0 Z " transform="translate(546,0)"/> </svg>